# xmcd
#
# Track frame offsets: 
#        150
#        7805
#        36847
#        60982
#        79487
#        102057
#        127277
#        152270
#        182982
#        204010
#        221927
#
# Disc length: 3002 seconds
#
# Revision: 1
# Processed by: cddbd v1.5.2PL0 Copyright (c) Steve Scherf et al.
# Submitted via: ExactAudioCopy v1.0b3
#
DISCID=8c0bb80b
DTITLE=Eric Miyashiro - Kick Up
DYEAR=2000
DGENRE=Jazz
TTITLE0=Blue Interlude(Opening)
TTITLE1=A Night In Tunisia
TTITLE2=Altanate Time Line
TTITLE3=Crystal Eyes
TTITLE4=Get It On
TTITLE5=Speak Like A Child
TTITLE6=The Star Spangled Banner
TTITLE7=Urban Sunset
TTITLE8=Kokopelli
TTITLE9=Kick Up
TTITLE10=Blue Interlude(Ending)
EXTD=YEAR: 2000
EXTT0=
EXTT1=
EXTT2=
EXTT3=
EXTT4=
EXTT5=
EXTT6=
EXTT7=
EXTT8=
EXTT9=
EXTT10=
PLAYORDER=
